<?xml version="1.0" encoding="UTF-8" standalone="no"?><svg xmlns="http://www.w3.org/2000/svg" xmlns:xlink="http://www.w3.org/1999/xlink" fill="#000000" height="479.5" preserveAspectRatio="xMidYMid meet" version="1" viewBox="11.3 9.3 479.5 479.5" width="479.5" zoomAndPan="magnify"><g id="change1_1"><path d="M490.758,249.013c0,132.41-107.334,239.744-239.741,239.744c-132.407,0-239.744-107.334-239.744-239.744 C11.272,116.607,118.61,9.27,251.017,9.27C383.424,9.27,490.758,116.607,490.758,249.013z" fill="#ffffff"/></g><g id="change2_1"><path d="M160.498,129.599h185.869c17.654,0,32.09,14.442,32.09,32.1v185.867c0,17.652-14.436,32.084-32.09,32.084 H160.498c-17.658,0-32.109-14.432-32.109-32.084V161.699C128.388,144.041,142.839,129.599,160.498,129.599z M310.561,157.37 c-6.201,0-11.258,5.083-11.258,11.275v26.929c0,6.205,5.057,11.269,11.258,11.269h28.257c6.189,0,11.263-5.064,11.263-11.269 v-26.929c0-6.192-5.073-11.275-11.263-11.275H310.561z M350.187,235.339h-22.005c2.089,6.821,3.22,14,3.22,21.473 c0,41.584-34.816,75.307-77.742,75.307c-42.921,0-77.736-33.723-77.736-75.307c0-7.473,1.143-14.651,3.221-21.473h-22.956v105.643 c0,5.472,4.466,9.916,9.932,9.916h174.135c5.472,0,9.932-4.444,9.932-9.916V235.339z M253.659,205.425 c-27.726,0-50.214,21.777-50.214,48.669c0,26.863,22.488,48.658,50.214,48.658c27.737,0,50.23-21.795,50.23-48.658 C303.89,227.202,281.396,205.425,253.659,205.425z" fill="#032b22"/></g></svg>